<svg xmlns="http://www.w3.org/2000/svg" viewBox="0 0 100 100" role="img" aria-label="Ave estilizada inspirada no símbolo enviado">
  <g fill="#000">
    <path d="M18 67C7 54 11 34 27 23c10-7 22-6 30 2 5 5 7 12 6 18 11 2 20-2 28-10-1 9-7 16-15 20 8 1 14 0 20-3-5 8-13 12-22 13l-8 11-12 5-4 10H35l2-11c-7-1-13-4-19-11Z"/>
    <path d="M27 30c-7 7-8 17-3 24 4 6 12 9 21 9 8 0 14-4 18-9-8 3-15 1-20-4-6-6-7-14-4-21-4-2-8-1-12 1Z" fill="#fff"/>
    <circle cx="43" cy="31" r="3.5" fill="#fff"/>
    <path d="M53 44l11 3-9 6Z" fill="#fff"/>
    <path d="M26 48l-8 3 8 1-6 5 9-2M34 54l-5 7 10-3M41 58l-3 7 10-5M57 57l8 4-6 2M67 47l8 1-5 4M71 39l8-2-4 6" fill="none" stroke="#fff" stroke-width="2.5" stroke-linecap="round"/>
    <path d="M42 77v11h-8M54 75v13h-8" fill="none" stroke="#000" stroke-width="5" stroke-linecap="round"/>
  </g>
</svg>